<svg width="36" height="36" viewBox="0 0 36 36" fill="none" xmlns="http://www.w3.org/2000/svg">
<path d="M16.2 27H19.8V16.2H16.2V27ZM18 12.6C18.51 12.6 18.9378 12.4272 19.2834 12.0816C19.629 11.736 19.8012 11.3088 19.8 10.8C19.7988 10.2912 19.626 9.864 19.2816 9.5184C18.9372 9.1728 18.51 9 18 9C17.49 9 17.0628 9.1728 16.7184 9.5184C16.374 9.864 16.2012 10.2912 16.2 10.8C16.1988 11.3088 16.3716 11.7366 16.7184 12.0834C17.0652 12.4302 17.4924 12.6024 18 12.6ZM18 36C15.51 36 13.17 35.5272 10.98 34.5816C8.79 33.636 6.885 32.3538 5.265 30.735C3.645 29.1162 2.3628 27.2112 1.4184 25.02C0.474002 22.8288 0.00120228 20.4888 2.27848e-06 18C-0.00119772 15.5112 0.471602 13.1712 1.4184 10.98C2.3652 8.7888 3.6474 6.8838 5.265 5.265C6.8826 3.6462 8.7876 2.364 10.98 1.4184C13.1724 0.4728 15.5124 0 18 0C20.4876 0 22.8276 0.4728 25.02 1.4184C27.2124 2.364 29.1174 3.6462 30.735 5.265C32.3526 6.8838 33.6354 8.7888 34.5834 10.98C35.5314 13.1712 36.0036 15.5112 36 18C35.9964 20.4888 35.5236 22.8288 34.5816 25.02C33.6396 27.2112 32.3574 29.1162 30.735 30.735C29.1126 32.3538 27.2076 33.6366 25.02 34.5834C22.8324 35.5302 20.4924 36.0024 18 36Z" fill="white"/>
</svg>
