<svg width="12" height="12" viewBox="0 0 12 12" fill="none" xmlns="http://www.w3.org/2000/svg">
<path d="M11.0391 0C11.2901 0.00997115 11.5287 0.112801 11.707 0.291016C11.8948 0.478753 12.001 0.733525 12.001 0.999023C12.001 1.26456 11.8948 1.51927 11.707 1.70703L7.41309 5.99902L11.707 10.29C11.8947 10.4777 12.0009 10.7327 12.001 10.998C12.001 11.2636 11.8948 11.5183 11.707 11.7061C11.5192 11.8938 11.2646 12 10.999 12C10.7336 11.9999 10.4787 11.8937 10.291 11.7061L5.99902 7.41309L1.70703 11.7061C1.51931 11.8938 1.26449 11.9999 0.999023 12C0.733457 12 0.4788 11.8938 0.291016 11.7061C0.121896 11.5369 0.0196373 11.3139 0.000976562 11.0771V10.9189C0.0198148 10.6825 0.122076 10.459 0.291016 10.29L4.58496 5.99902L0.291016 1.70703C0.121721 1.53776 0.0195027 1.31412 0.000976562 1.07715V0.919922C0.0197473 0.683386 0.121999 0.460011 0.291016 0.291016C0.469368 0.112799 0.707996 0.00997936 0.958984 0H1.03809C1.28934 0.00987937 1.52855 0.112556 1.70703 0.291016L5.99902 4.58496L10.291 0.291016C10.4695 0.112564 10.7087 0.00988728 10.96 0H11.0391Z" fill="white"/>
</svg>
