<svg width="100" height="39" viewBox="0 0 100 39" fill="none" xmlns="http://www.w3.org/2000/svg">
<g clip-path="url(#clip0_359_1961)">
<path d="M17.0526 9.26265C17.0526 7.00133 16.1543 4.83263 14.5553 3.23363C12.9563 1.63464 10.7876 0.736328 8.52632 0.736328C6.265 0.736328 4.0963 1.63463 2.4973 3.23363C0.898306 4.83263 3.4145e-07 7.00133 0 9.26265H5.26116C5.26116 8.39668 5.60516 7.56617 6.2175 6.95383C6.82984 6.3415 7.66034 5.99749 8.52632 5.99749C9.39229 5.99749 10.2228 6.3415 10.8351 6.95383C11.4475 7.56617 11.7915 8.39668 11.7915 9.26265H17.0526Z" fill="#0095FF"/>
<path d="M99.8075 0.416787C96.6596 -0.0546581 93.4647 -0.126485 90.2987 0.203013L93.5774 31.7059C94.0898 31.6526 94.6069 31.6642 95.1164 31.7405L99.8075 0.416787Z" fill="#0095FF"/>
<ellipse cx="94.1053" cy="35.5792" rx="2.94737" ry="2.94737" fill="#0095FF"/>
<path d="M63.0527 23.7891C65.3699 23.7891 67.5921 22.8686 69.2306 21.2302C70.8691 19.5917 71.7896 17.3694 71.7896 15.0523C71.7896 12.7351 70.8691 10.5129 69.2306 8.87439C67.5921 7.23592 65.3699 6.31543 63.0527 6.31543V10.5227C64.254 10.5227 65.4061 10.9999 66.2556 11.8494C67.105 12.6989 67.5823 13.851 67.5823 15.0523C67.5823 16.2536 67.105 17.4057 66.2556 18.2552C65.4061 19.1046 64.254 19.5818 63.0527 19.5818V23.7891Z" fill="#0095FF"/>
<rect y="9.2627" width="5.26316" height="15.3684" fill="#0095FF"/>
<rect y="9.2627" width="5.26316" height="15.3684" fill="#0095FF"/>
<path d="M-2.09808e-05 29.9991C-2.09808e-05 32.2604 0.898285 34.4291 2.49728 36.0281C4.09627 37.6271 6.26498 38.5254 8.52629 38.5254C10.7876 38.5254 12.9563 37.6271 14.5553 36.0281C16.1543 34.4291 17.0526 32.2604 17.0526 29.9991H11.77C11.77 30.8593 11.4282 31.6844 10.8199 32.2927C10.2116 32.901 9.38657 33.2428 8.5263 33.2428C7.66602 33.2428 6.84097 32.901 6.23267 32.2927C5.62436 31.6844 5.28261 30.8593 5.28261 29.9991H-2.09808e-05Z" fill="#0095FF"/>
<rect x="17.0526" y="30.1045" width="5.26316" height="15.7895" transform="rotate(180 17.0526 30.1045)" fill="#0095FF"/>
<rect x="0.631592" y="22.1045" width="5.26316" height="15.7895" transform="rotate(-90 0.631592 22.1045)" fill="#0095FF"/>
<rect x="19.1578" y="24.209" width="4.42106" height="13.0526" transform="rotate(-90 19.1578 24.209)" fill="#0095FF"/>
<rect x="54.3158" y="10.5264" width="4.21053" height="8.84211" transform="rotate(-90 54.3158 10.5264)" fill="#0095FF"/>
<rect x="54.7368" y="23.7891" width="4.21053" height="8.84211" transform="rotate(-90 54.7368 23.7891)" fill="#0095FF"/>
<rect x="73.8948" y="6.52539" width="4.42105" height="32" fill="#0095FF"/>
<rect x="87.158" y="6.52539" width="4.42106" height="13.2632" transform="rotate(90 87.158 6.52539)" fill="#0095FF"/>
<rect x="87.158" y="34.1045" width="4.42106" height="13.2632" transform="rotate(90 87.158 34.1045)" fill="#0095FF"/>
<rect x="87.158" y="19.7891" width="4.42106" height="13.2632" transform="rotate(90 87.158 19.7891)" fill="#0095FF"/>
<rect x="19.1578" y="6.10449" width="4.42105" height="32" fill="#0095FF"/>
<rect x="27.7894" y="6.10449" width="4.42105" height="32" fill="#0095FF"/>
<rect x="44.8406" y="6.10449" width="4.42105" height="18.8003" transform="rotate(34 44.8406 6.10449)" fill="#0095FF"/>
<rect x="34.3158" y="25.8936" width="4.21053" height="17.8947" transform="rotate(-90 34.3158 25.8936)" fill="#0095FF"/>
<rect x="44.842" y="6.10449" width="4.42105" height="31.7895" fill="#0095FF"/>
<rect x="54.3158" y="6.31543" width="4.42105" height="31.7895" fill="#0095FF"/>
<rect x="59.7522" y="22.2188" width="4.42105" height="17.9296" transform="rotate(-25 59.7522 22.2188)" fill="#0095FF"/>
</g>
<defs>
<clipPath id="clip0_359_1961">
<rect width="100" height="39" fill="white"/>
</clipPath>
</defs>
</svg>
