<svg width="36" height="36" viewBox="0 0 36 36" fill="none" xmlns="http://www.w3.org/2000/svg">
<g clip-path="url(#clip0_1196_2515)">
<path d="M0 35.0999L18 0.899902L36 35.0999H0ZM18 29.6999C18.4636 29.6999 18.8525 29.5271 19.1667 29.1815C19.4809 28.8359 19.6375 28.4087 19.6364 27.8999C19.6353 27.3911 19.4782 26.9639 19.1651 26.6183C18.852 26.2727 18.4636 26.0999 18 26.0999C17.5364 26.0999 17.148 26.2727 16.8349 26.6183C16.5218 26.9639 16.3647 27.3911 16.3636 27.8999C16.3625 28.4087 16.5196 28.8365 16.8349 29.1833C17.1502 29.5301 17.5385 29.7023 18 29.6999ZM16.3636 24.2999H19.6364V15.2999H16.3636V24.2999Z" fill="white"/>
</g>
<defs>
<clipPath id="clip0_1196_2515">
<rect width="36" height="36" fill="white"/>
</clipPath>
</defs>
</svg>
